<?xml version="1.0" standalone="no"?><!-- Generator: Gravit.io --><svg xmlns="http://www.w3.org/2000/svg" xmlns:xlink="http://www.w3.org/1999/xlink" style="isolation:isolate" viewBox="0 0 550 550" width="550" height="550"><defs><clipPath id="_clipPath_NhZbiHGrHMkSQRhrvgwNlZVdMFkXOYCb"><rect width="550" height="550"/></clipPath></defs><g clip-path="url(#_clipPath_NhZbiHGrHMkSQRhrvgwNlZVdMFkXOYCb)"><g><g><g><g><linearGradient id="_lgradient_0" x1="0" y1="0.5" x2="0.9999999999999999" y2="0.5" gradientTransform="matrix(424.6,0,0,384,93.4,165.3)" gradientUnits="userSpaceOnUse"><stop offset="0%" stop-opacity="1" style="stop-color:rgb(214,72,147)"/><stop offset="9.281731%" stop-opacity="1" style="stop-color:rgb(219,83,158)"/><stop offset="49.309999999999995%" stop-opacity="1" style="stop-color:rgb(237,123,198)"/><stop offset="80.93%" stop-opacity="1" style="stop-color:rgb(249,149,224)"/><stop offset="100%" stop-opacity="1" style="stop-color:rgb(253,158,233)"/></linearGradient><path d=" M 115.9 549.3 C 103.5 549.3 93.4 539.2 93.4 526.8 L 93.4 401.1 C 93.4 355.1 130.9 317.6 176.9 317.6 L 275.4 317.6 C 296.6 317.6 313.9 300.3 313.9 279.1 L 313.9 242.8 C 313.9 196.8 351.4 165.3 397.4 165.3 L 495.5 165.3 C 507.9 165.3 518 175.4 518 187.8 C 518 200.2 507.9 210.3 495.5 210.3 L 397.4 210.3 C 376.2 210.3 358.9 221.6 358.9 242.8 L 358.9 279.1 C 358.9 325.1 321.4 362.6 275.4 362.6 L 176.9 362.6 C 155.7 362.6 138.4 379.9 138.4 401.1 L 138.4 526.8 C 138.4 539.3 128.3 549.3 115.9 549.3 Z " fill="url(#_lgradient_0)"/><g><linearGradient id="_lgradient_1" x1="1.1102230246251565e-16" y1="0.5" x2="0.9999999999999999" y2="0.5" gradientTransform="matrix(424.6,0,0,384,93.4,165.3)" gradientUnits="userSpaceOnUse"><stop offset="0%" stop-opacity="1" style="stop-color:rgb(165,34,155)"/><stop offset="52.769999999999996%" stop-opacity="1" style="stop-color:rgb(201,82,204)"/><stop offset="83.35000000000001%" stop-opacity="1" style="stop-color:rgb(225,102,232)"/><stop offset="100%" stop-opacity="1" style="stop-color:rgb(207,94,214)"/></linearGradient><path d=" M 495.5 168.3 C 506.3 168.3 515 177 515 187.8 C 515 198.6 506.3 207.3 495.5 207.3 L 397.4 207.3 C 374.5 207.3 355.9 225.9 355.9 248.8 L 355.9 279.1 C 355.9 323.5 319.8 359.6 275.4 359.6 L 176.9 359.6 C 154 359.6 135.4 378.2 135.4 401.1 L 135.4 526.8 C 135.4 537.6 126.7 546.3 115.9 546.3 C 105.1 546.3 96.4 537.6 96.4 526.8 L 96.4 401.1 C 96.4 356.7 132.5 320.6 176.9 320.6 L 275.4 320.6 C 298.3 320.6 316.9 302 316.9 279.1 L 316.9 248.8 C 316.9 204.4 353 168.3 397.4 168.3 L 495.5 168.3 Z  M 495.5 165.3 L 397.4 165.3 C 351.4 165.3 313.9 202.8 313.9 248.8 L 313.9 279.1 C 313.9 300.3 296.6 317.6 275.4 317.6 L 176.9 317.6 C 130.9 317.6 93.4 355.1 93.4 401.1 L 93.4 526.8 C 93.4 539.2 103.5 549.3 115.9 549.3 C 128.3 549.3 138.4 539.2 138.4 526.8 L 138.4 401.1 C 138.4 379.9 155.7 362.6 176.9 362.6 L 275.4 362.6 C 321.4 362.6 358.9 325.1 358.9 279.1 L 358.9 248.8 C 358.9 227.6 376.2 210.3 397.4 210.3 L 495.5 210.3 C 507.9 210.3 518 200.2 518 187.8 C 518 175.4 507.9 165.3 495.5 165.3 L 495.5 165.3 Z " fill="url(#_lgradient_1)"/></g><path d=" M 358.9 168.8 C 332.2 182.7 313.9 210.7 313.9 242.9 C 313.9 242.9 313.9 353.3 313.8 353.3 C 340.5 339.4 358.9 311.4 358.9 279.2 L 358.9 242.9 C 358.9 234.7 358.8 168.9 358.9 168.8 Z " fill="rgb(89,48,153)"/><g><path d=" M 463.6 187.9 C 464 187.5 464.5 187 464.9 186.6 C 466 185.5 467 184.5 468.1 183.4 C 469.5 182 470.8 180.7 472.2 179.3 C 473.6 177.9 474.9 176.6 476.3 175.2 C 477.3 174.2 478.4 173.1 479.4 172.1 C 481.5 170 484.1 168.2 486.9 167.1 C 488 166.7 489.1 166.3 490.2 166.1 C 491.7 165.8 493.2 165.5 494.7 165.3 L 441.1 165.3 L 463.6 187.9 Z " fill="rgb(223,100,229)"/><path d=" M 493.3 165.5 C 494 165.4 494.7 165.4 495.4 165.4 C 501.7 165.4 507.5 168 511.6 172.3 L 511.7 172.3 C 511.6 172.2 511.5 172.1 511.4 172 L 467.4 128 C 458.6 119.2 444.4 119.2 435.6 128 C 426.8 136.8 426.8 151 435.6 159.8 L 441.1 165.3 C 441.9 165.3 494.7 165.3 494.6 165.3 C 494.2 165.4 493.8 165.5 493.3 165.5 Z " fill="rgb(188,92,198)"/><path d=" M 493.3 210.3 C 494 210.4 494.7 210.4 495.4 210.4 C 501.7 210.4 507.5 207.8 511.6 203.5 L 511.7 203.5 C 511.6 203.6 511.5 203.7 511.4 203.8 L 467.4 247.8 C 458.6 256.6 444.4 256.6 435.6 247.8 C 426.8 239 426.8 224.8 435.6 216 L 441.1 210.5 C 441.9 210.5 494.7 210.5 494.6 210.5 C 494.2 210.4 493.7 210.4 493.3 210.3 Z " fill="rgb(188,92,198)"/><path d=" M 463.6 187.9 C 464 188.3 464.5 188.8 464.9 189.2 C 466 190.3 467 191.3 468.1 192.4 C 469.5 193.8 470.8 195.1 472.2 196.5 C 473.6 197.9 474.9 199.2 476.3 200.6 C 477.3 201.6 478.4 202.7 479.4 203.7 C 481.5 205.8 484.1 207.6 486.9 208.7 C 488 209.1 489.1 209.5 490.2 209.7 C 491.7 210 493.2 210.3 494.7 210.5 L 441.1 210.5 L 463.6 187.9 Z " fill="rgb(223,100,229)"/><path d=" M 495.4 165.4 C 489.5 165.4 484.1 167.7 480.1 171.4 C 479.4 172 477.9 173.5 477.9 173.5 L 463.7 187.9 L 479.1 203.3 C 483.2 207.7 489 210.4 495.5 210.4 C 507.9 210.4 518 200.3 518 187.9 C 517.9 175.5 507.8 165.4 495.4 165.4 Z " fill="rgb(166,80,181)"/></g><circle vector-effect="non-scaling-stroke" cx="115.90000000000015" cy="526.1000000000003" r="15.5" fill="rgb(137,40,135)"/></g><g style="opacity:0.12;"><g style="opacity:0.12;"><g opacity="0.12"><path d=" M 316.1 348 L 314 353.3 C 314 353.3 308.4 356.1 303.8 357.5 C 307.5 351.4 310.2 344.5 309.4 333.3 C 308.6 322.1 300.1 313.5 296.5 311 C 301.2 307.8 304.4 305.3 309.1 297.6 C 313.8 289.9 314.5 279.5 314.5 279.5 L 316.1 348 Z " fill="rgb(130,26,130)"/></g></g></g><g style="opacity:0.12;"><g style="opacity:0.12;"><g opacity="0.12"><path d=" M 178.9 362.5 C 178.9 362.5 176.2 362.5 174 362.7 C 171.7 362.9 171.9 362.7 167.9 363.6 C 171.6 357.5 173.9 351.8 173.8 340.6 C 173.7 329.4 170.7 323 167.8 318.2 C 169.4 318 169.8 317.8 173.4 317.7 C 177 317.6 179 317.6 179 317.6 L 179 362.5 L 178.9 362.5 L 178.9 362.5 Z " fill="rgb(65,29,112)"/></g></g></g><g><g><linearGradient id="_lgradient_2" x1="0.5" y1="1" x2="0.5000000000000001" y2="2.220446049250313e-16" gradientTransform="matrix(171.6,0,0,395,50.7,102.7)" gradientUnits="userSpaceOnUse"><stop offset="0%" stop-opacity="1" style="stop-color:rgb(0,131,182)"/><stop offset="4.632003%" stop-opacity="1" style="stop-color:rgb(10,137,183)"/><stop offset="36.809999999999995%" stop-opacity="1" style="stop-color:rgb(76,173,181)"/><stop offset="61.91%" stop-opacity="1" style="stop-color:rgb(134,208,193)"/><stop offset="79.03%" stop-opacity="1" style="stop-color:rgb(144,220,205)"/><stop offset="99.91%" stop-opacity="1" style="stop-color:rgb(162,235,186)"/></linearGradient><path d=" M 199.8 497.7 C 187.4 497.7 177.3 487.6 177.3 475.2 L 177.3 186.2 C 177.3 165 160 147.7 138.8 147.7 L 73.2 147.7 C 60.8 147.7 50.7 137.6 50.7 125.2 C 50.7 112.8 60.8 102.7 73.2 102.7 L 138.8 102.7 C 184.8 102.7 222.3 140.2 222.3 186.2 L 222.3 475.2 C 222.3 487.6 212.2 497.7 199.8 497.7 Z " fill="url(#_lgradient_2)"/></g><circle vector-effect="non-scaling-stroke" cx="199.90000000000003" cy="474.1" r="15.5" fill="rgb(2,101,140)"/><g style="opacity:0.68;"><g style="opacity:0.68;"><g opacity="0.68"><rect x="180" y="317.3" width="39.4" height="45.2" transform="matrix(1,0,0,1,0,0)" fill="rgb(45,75,127)"/></g></g></g><g><linearGradient id="_lgradient_3" x1="0.5" y1="1" x2="0.5" y2="0.2161571602051412" gradientTransform="matrix(171.6,0,0,395,50.7,102.7)" gradientUnits="userSpaceOnUse"><stop offset="0%" stop-opacity="1" style="stop-color:rgb(63,115,185)"/><stop offset="35.47%" stop-opacity="1" style="stop-color:rgb(46,149,163)"/><stop offset="66.32000000000001%" stop-opacity="1" style="stop-color:rgb(24,189,160)"/><stop offset="83.96000000000001%" stop-opacity="1" style="stop-color:rgb(0,237,196)"/></linearGradient><path d=" M 138.8 105.7 C 183.2 105.7 219.3 141.8 219.3 186.2 L 219.3 475.2 C 219.3 486 210.6 494.7 199.8 494.7 C 189 494.7 180.3 486 180.3 475.2 L 180.3 186.2 C 180.3 163.3 161.7 144.7 138.8 144.7 L 73.2 144.7 C 62.4 144.7 53.7 136 53.7 125.2 C 53.7 114.4 62.4 105.7 73.2 105.7 L 138.8 105.7 Z  M 138.8 102.7 L 73.2 102.7 C 60.8 102.7 50.7 112.8 50.7 125.2 C 50.7 137.6 60.8 147.7 73.2 147.7 L 138.8 147.7 C 160 147.7 177.3 165 177.3 186.2 L 177.3 475.2 C 177.3 487.6 187.4 497.7 199.8 497.7 C 212.2 497.7 222.3 487.6 222.3 475.2 L 222.3 186.2 C 222.3 140.2 184.8 102.7 138.8 102.7 L 138.8 102.7 Z " fill="url(#_lgradient_3)"/></g></g><g><linearGradient id="_lgradient_4" x1="0.5" y1="1.0000000000000004" x2="0.5000000000000001" y2="0" gradientTransform="matrix(45,0,0,518,313.9,1.1)" gradientUnits="userSpaceOnUse"><stop offset="0%" stop-opacity="1" style="stop-color:rgb(129,177,222)"/><stop offset="61.88%" stop-opacity="1" style="stop-color:rgb(163,160,234)"/><stop offset="99.91%" stop-opacity="1" style="stop-color:rgb(201,142,247)"/></linearGradient><path d=" M 336.4 519.1 C 324 519.1 313.9 509 313.9 496.6 L 313.9 23.6 C 313.9 11.2 324 1.1 336.4 1.1 C 348.8 1.1 358.9 11.2 358.9 23.6 L 358.9 496.6 C 358.9 509 348.8 519.1 336.4 519.1 Z " fill="url(#_lgradient_4)"/><linearGradient id="_lgradient_5" x1="0.5000000000000018" y1="1" x2="0.5000000000000019" y2="0" gradientTransform="matrix(45.1,0,0,178.9,313.8,174.6)" gradientUnits="userSpaceOnUse"><stop offset="0%" stop-opacity="1" style="stop-color:rgb(116,72,181)"/><stop offset="100%" stop-opacity="1" style="stop-color:rgb(103,86,179)"/></linearGradient><path d=" M 358.9 174.6 C 332.2 187 313.9 211.8 313.9 240.3 L 313.9 287.8 C 313.9 288.4 313.9 289 313.8 289.6 C 313.8 289.9 313.8 353.5 313.8 353.5 C 340.5 341.1 358.9 316.3 358.9 287.7 L 358.9 234.2 C 358.9 227 358.9 174.6 358.9 174.6 Z " fill="url(#_lgradient_5)"/><g><linearGradient id="_lgradient_6" x1="0.5" y1="1.0000000000000007" x2="0.5000000000000001" y2="2.220446049250313e-16" gradientTransform="matrix(45,0,0,518,313.9,1.1)" gradientUnits="userSpaceOnUse"><stop offset="0%" stop-opacity="1" style="stop-color:rgb(72,82,187)"/><stop offset="39.26%" stop-opacity="1" style="stop-color:rgb(118,93,227)"/><stop offset="73.39%" stop-opacity="1" style="stop-color:rgb(153,84,204)"/><stop offset="100%" stop-opacity="1" style="stop-color:rgb(173,64,201)"/></linearGradient><path d=" M 336.4 4.1 C 347.2 4.1 355.9 12.8 355.9 23.6 L 355.9 496.6 C 355.9 507.4 347.2 516.1 336.4 516.1 C 325.6 516.1 316.9 507.4 316.9 496.6 L 316.9 23.6 C 316.9 12.9 325.6 4.1 336.4 4.1 Z  M 336.4 1.1 C 324 1.1 313.9 11.2 313.9 23.6 L 313.9 496.6 C 313.9 509 324 519.1 336.4 519.1 C 348.8 519.1 358.9 509 358.9 496.6 L 358.9 23.6 C 358.9 11.2 348.8 1.1 336.4 1.1 L 336.4 1.1 Z " fill="url(#_lgradient_6)"/></g><g><circle vector-effect="non-scaling-stroke" cx="336.4" cy="254.09999999999997" r="15.399999999999977" fill="rgb(255,255,255)"/><path d=" M 336.4 240.7 C 343.8 240.7 349.8 246.7 349.8 254.1 C 349.8 261.5 343.8 267.5 336.4 267.5 C 329 267.5 323 261.5 323 254.1 C 323 246.7 329.1 240.7 336.4 240.7 Z  M 336.4 236.7 C 326.8 236.7 319 244.5 319 254.1 C 319 263.7 326.8 271.5 336.4 271.5 C 346 271.5 353.8 263.7 353.8 254.1 C 353.8 244.5 346 236.7 336.4 236.7 L 336.4 236.7 Z " fill="rgb(129,129,226)"/></g><g><circle vector-effect="non-scaling-stroke" cx="336.4" cy="495.89999999999975" r="15.399999999999977" fill="rgb(73,99,201)"/></g></g><g><path d=" M 336.4 54.3 C 336 53.9 335.5 53.4 335.1 53 C 334 51.9 333 50.9 331.9 49.8 C 330.5 48.4 329.2 47.1 327.8 45.7 C 326.4 44.3 325.1 43 323.7 41.6 C 322.7 40.6 321.6 39.5 320.6 38.5 C 318.5 36.4 316.7 33.8 315.6 31 C 315.2 29.9 314.8 28.8 314.6 27.7 C 314.3 26.2 314 24.7 313.8 23.2 L 313.8 76.8 L 336.4 54.3 Z " fill="rgb(162,75,203)"/><path d=" M 314 24.6 C 313.9 23.9 313.9 23.2 313.9 22.5 C 313.9 16.2 316.5 10.4 320.8 6.3 L 320.8 6.2 C 320.7 6.3 320.6 6.4 320.5 6.5 L 276.5 50.5 C 267.7 59.3 267.7 73.5 276.5 82.3 C 285.3 91.1 299.5 91.1 308.3 82.3 L 313.8 76.8 C 313.8 76 313.8 23.2 313.8 23.3 C 313.9 23.7 313.9 24.2 314 24.6 Z " fill="rgb(145,115,216)"/><path d=" M 358.8 24.6 C 358.9 23.9 358.9 23.2 358.9 22.5 C 358.9 16.2 356.3 10.4 352 6.3 L 352 6.2 C 352.1 6.3 352.2 6.4 352.3 6.5 L 396.3 50.5 C 405.1 59.3 405.1 73.5 396.3 82.3 C 387.5 91.1 373.3 91.1 364.5 82.3 L 359 76.8 C 359 76 359 23.2 359 23.3 C 358.9 23.7 358.8 24.2 358.8 24.6 Z " fill="rgb(145,115,216)"/><path d=" M 336.4 54.3 C 336.8 53.9 337.3 53.4 337.7 53 C 338.8 51.9 339.8 50.9 340.9 49.8 C 342.3 48.4 343.6 47.1 345 45.7 C 346.4 44.3 347.7 43 349.1 41.6 C 350.1 40.6 351.2 39.5 352.2 38.5 C 354.3 36.4 356.1 33.8 357.2 31 C 357.6 29.9 358 28.8 358.2 27.7 C 358.5 26.2 358.8 24.7 359 23.2 L 359 76.8 L 336.4 54.3 Z " fill="rgb(162,75,203)"/><path d=" M 313.9 22.5 C 313.9 28.4 316.2 33.8 319.9 37.8 C 320.5 38.5 322 40 322 40 L 336.4 54.3 L 351.8 38.9 C 356.2 34.8 358.9 29 358.9 22.5 C 358.9 10.1 348.8 0 336.4 0 C 324 0 313.9 10.1 313.9 22.5 Z " fill="rgb(117,81,188)"/></g><g><path d=" M 104.7 125.3 C 104.3 124.9 103.8 124.4 103.4 124 C 102.3 122.9 101.3 121.9 100.2 120.8 C 98.8 119.4 97.5 118.1 96.1 116.7 C 94.7 115.3 93.4 114 92 112.6 C 91 111.6 89.9 110.5 88.9 109.5 C 86.8 107.4 84.2 105.6 81.4 104.5 C 80.3 104.1 79.2 103.7 78.1 103.5 C 76.6 103.2 75.1 102.9 73.6 102.7 L 127.2 102.7 L 104.7 125.3 Z " fill="rgb(36,234,195)"/><path d=" M 75 102.9 C 74.3 102.8 73.6 102.8 72.9 102.8 C 66.6 102.8 60.8 105.4 56.7 109.7 L 56.6 109.7 C 56.7 109.6 56.8 109.5 56.9 109.4 L 100.9 65.4 C 109.7 56.6 123.9 56.6 132.7 65.4 C 141.5 74.2 141.5 88.4 132.7 97.2 L 127.2 102.7 C 126.4 102.7 73.6 102.7 73.7 102.7 C 74.1 102.7 74.5 102.8 75 102.9 Z " fill="rgb(44,219,186)"/><path d=" M 75 147.6 C 74.3 147.7 73.6 147.7 72.9 147.7 C 66.6 147.7 60.8 145.1 56.7 140.8 L 56.6 140.8 C 56.7 140.9 56.8 141 56.9 141.1 L 100.9 185.1 C 109.7 193.9 123.9 193.9 132.7 185.1 C 141.5 176.3 141.5 162.1 132.7 153.3 L 127.2 147.8 C 126.4 147.8 73.6 147.8 73.7 147.8 C 74.1 147.8 74.6 147.7 75 147.6 Z " fill="rgb(44,219,186)"/><path d=" M 104.7 125.3 C 104.3 125.7 103.8 126.2 103.4 126.6 C 102.3 127.7 101.3 128.7 100.2 129.8 C 98.8 131.2 97.5 132.5 96.1 133.9 C 94.7 135.3 93.4 136.6 92 138 C 91 139 89.9 140.1 88.9 141.1 C 86.8 143.2 84.2 145 81.4 146.1 C 80.3 146.5 79.2 146.9 78.1 147.1 C 76.6 147.4 75.1 147.7 73.6 147.9 L 127.2 147.9 L 104.7 125.3 Z " fill="rgb(36,234,195)"/><path d=" M 72.9 102.8 C 78.8 102.8 84.2 105.1 88.2 108.8 C 88.9 109.4 90.4 110.9 90.4 110.9 L 104.7 125.3 L 89.3 140.7 C 85.2 145.1 79.4 147.8 72.9 147.8 C 60.5 147.8 50.4 137.7 50.4 125.3 C 50.4 112.8 60.5 102.8 72.9 102.8 Z " fill="rgb(32,201,169)"/></g><g style="opacity:0.4;"><g style="opacity:0.4;"><g style="opacity:0.4;"><g opacity="0.4"><circle vector-effect="non-scaling-stroke" cx="200.10000000000008" cy="340.1999999999998" r="17.399999999999977" fill="rgb(29,83,112)"/></g></g></g></g><g><path d=" M 199.9 355.5 C 191.4 355.5 184.5 348.6 184.5 340.1 C 184.5 331.6 191.4 324.7 199.9 324.7 C 208.4 324.7 215.3 331.6 215.3 340.1 C 215.3 348.6 208.4 355.5 199.9 355.5 Z " fill="rgb(255,255,255)"/><path d=" M 199.9 326.8 C 207.3 326.8 213.3 332.8 213.3 340.2 C 213.3 347.6 207.3 353.6 199.9 353.6 C 192.5 353.6 186.5 347.6 186.5 340.2 C 186.5 332.8 192.6 326.8 199.9 326.8 Z  M 199.9 322.8 C 190.3 322.8 182.5 330.6 182.5 340.2 C 182.5 349.8 190.3 357.6 199.9 357.6 C 209.5 357.6 217.3 349.8 217.3 340.2 C 217.3 330.6 209.5 322.8 199.9 322.8 L 199.9 322.8 Z " fill="rgb(61,146,165)"/></g><circle vector-effect="non-scaling-stroke" cx="200.20000000000007" cy="234.40000000000006" r="15.5" fill="rgb(82,170,185)"/></g></g></g></g></svg>