<?xml version="1.0" standalone="no"?><!-- Generator: Gravit.io --><svg xmlns="http://www.w3.org/2000/svg" xmlns:xlink="http://www.w3.org/1999/xlink" style="isolation:isolate" viewBox="0 0 600 600" width="600" height="600"><defs><clipPath id="_clipPath_W0RXwXsVz8Z1K8CE0cgNQLKvp15B7zlk"><rect width="600" height="600"/></clipPath></defs><g clip-path="url(#_clipPath_W0RXwXsVz8Z1K8CE0cgNQLKvp15B7zlk)"><g><g><path d=" M 575 584.2 C 575 584.3 575 584.4 574.908 584.5 C 574.908 584.5 574.908 584.6 574.815 584.6 C 574.815 584.7 574.723 584.8 574.723 584.8 L 574.631 584.9 C 574.539 585 574.539 585 574.446 585.1 L 574.354 585.2 C 574.262 585.3 574.169 585.3 574.169 585.4 C 574.077 585.4 574.077 585.5 573.985 585.5 C 573.892 585.5 573.892 585.6 573.8 585.6 C 573.708 585.6 573.708 585.7 573.616 585.7 C 573.523 585.7 573.431 585.8 573.339 585.8 C 573.246 585.8 573.154 585.9 573.154 585.9 C 573.062 585.9 572.969 586 572.877 586 C 572.785 586 572.693 586.1 572.6 586.1 L 572.508 586.1 C 572.139 586.2 571.77 586.3 571.4 586.4 L 571.308 586.4 C 570.939 586.5 570.478 586.6 570.016 586.6 C 569.924 586.6 569.831 586.6 569.739 586.6 C 569.278 586.7 568.816 586.7 568.262 586.7 C 568.262 586.7 568.262 586.7 568.17 586.7 C 567.616 586.7 566.97 586.8 566.416 586.8 L 8.765 585.1 C 8.211 585.1 7.657 585.1 7.104 585 C 7.011 585 7.011 585 6.919 585 C 6.365 585 5.904 584.9 5.442 584.9 C 5.35 584.9 5.258 584.9 5.258 584.9 C 4.796 584.8 4.335 584.8 3.966 584.7 C 3.873 584.7 3.781 584.7 3.781 584.6 C 3.412 584.5 3.135 584.4 2.858 584.3 C 2.766 584.3 2.673 584.3 2.673 584.2 C 2.581 584.2 2.581 584.2 2.489 584.1 C 2.304 584 2.212 584 2.027 583.9 C 1.935 583.9 1.935 583.8 1.843 583.8 C 1.75 583.8 1.658 583.7 1.658 583.7 C 1.566 583.7 1.566 583.6 1.474 583.6 C 1.381 583.6 1.381 583.5 1.289 583.5 C 1.197 583.5 1.197 583.4 1.104 583.4 C 1.012 583.4 1.012 583.3 0.92 583.3 C 0.828 583.3 0.828 583.2 0.828 583.2 C 0.828 583.1 0.735 583.1 0.735 583 C 0.735 582.9 0.643 582.9 0.643 582.8 L 0.643 582.8 C 0.551 582.7 0.551 582.6 0.551 582.5 L 0.551 582.5 C 0.551 582.4 0.458 582.3 0.458 582.2 L 0.458 582.2 L 0.458 582.2 L 0.458 582.2 L 1.566 595 C 1.566 595.1 1.566 595.1 1.566 595.2 L 1.566 595.3 L 1.566 595.3 L 1.566 595.3 C 1.566 595.4 1.658 595.4 1.658 595.5 C 1.658 595.5 1.658 595.5 1.658 595.6 C 1.658 595.6 1.658 595.6 1.658 595.7 C 1.658 595.7 1.658 595.7 1.658 595.8 L 1.75 595.9 C 1.75 596 1.843 596 1.843 596.1 C 1.843 596.1 1.843 596.1 1.843 596.2 L 1.935 596.3 L 2.027 596.4 C 2.027 596.4 2.12 596.4 2.12 596.5 C 2.12 596.5 2.12 596.5 2.212 596.6 L 2.304 596.7 C 2.397 596.7 2.397 596.8 2.489 596.8 C 2.489 596.8 2.581 596.8 2.581 596.9 C 2.581 596.9 2.673 596.9 2.673 597 C 2.766 597 2.858 597.1 2.858 597.1 C 2.858 597.1 2.95 597.1 2.95 597.2 L 3.043 597.2 C 3.135 597.3 3.319 597.3 3.504 597.4 C 3.504 597.4 3.596 597.4 3.596 597.5 C 3.596 597.5 3.596 597.5 3.689 597.5 L 3.781 597.5 L 3.873 597.5 C 4.058 597.6 4.15 597.6 4.335 597.7 C 4.519 597.7 4.704 597.8 4.796 597.8 C 4.889 597.8 4.981 597.8 4.981 597.9 L 5.073 597.9 C 5.35 598 5.719 598 5.996 598.1 C 6.088 598.1 6.181 598.1 6.273 598.1 L 6.365 598.1 L 6.458 598.1 C 6.55 598.1 6.734 598.1 6.827 598.2 C 7.104 598.2 7.473 598.3 7.75 598.3 L 7.842 598.3 C 7.934 598.3 7.934 598.3 8.027 598.3 C 8.211 598.3 8.488 598.3 8.673 598.3 C 9.042 598.3 9.319 598.3 9.688 598.3 L 565.124 600 C 565.309 600 565.494 600 565.678 600 C 565.863 600 566.047 600 566.14 600 C 566.324 600 566.509 600 566.601 600 C 566.693 600 566.786 600 566.878 600 C 566.878 600 566.878 600 566.97 600 L 567.063 600 C 567.432 600 567.801 599.9 568.078 599.9 C 568.17 599.9 568.262 599.9 568.355 599.9 C 568.447 599.9 568.447 599.9 568.539 599.9 C 568.632 599.9 568.632 599.9 568.724 599.9 C 568.816 599.9 569.001 599.9 569.093 599.8 C 569.37 599.7 569.739 599.7 570.016 599.6 L 570.016 599.6 L 570.108 599.6 C 570.385 599.5 570.57 599.5 570.847 599.4 C 571.031 599.4 571.124 599.3 571.216 599.3 L 571.308 599.3 C 571.308 599.3 571.308 599.3 571.4 599.3 C 571.4 599.3 571.4 599.3 571.493 599.3 C 571.585 599.3 571.585 599.2 571.677 599.2 C 571.77 599.2 571.862 599.1 571.954 599.1 C 571.954 599.1 571.954 599.1 572.047 599.1 C 572.139 599.1 572.139 599 572.231 599 C 572.323 599 572.416 598.9 572.508 598.9 C 572.508 598.9 572.508 598.9 572.6 598.9 C 572.693 598.9 572.693 598.8 572.693 598.8 C 572.785 598.8 572.877 598.7 572.877 598.7 C 572.877 598.7 572.877 598.7 572.969 598.7 L 573.062 598.6 C 573.154 598.6 573.154 598.5 573.246 598.5 L 573.339 598.4 C 573.339 598.4 573.339 598.4 573.431 598.3 C 573.431 598.3 573.431 598.3 573.523 598.2 C 573.616 598.1 573.616 598.1 573.708 598 C 573.708 598 573.708 597.9 573.8 597.9 L 573.8 597.9 C 573.892 597.8 573.892 597.7 573.892 597.7 L 573.892 597.6 L 573.892 597.6 C 573.892 597.5 573.985 597.4 573.985 597.2 C 574.169 592.7 574.539 588.5 575 584.2 Z " fill="rgb(216,224,234)"/><linearGradient id="_lgradient_0" x1="0.5" y1="0.1908789999999989" x2="0.49999999999999983" y2="0.9909409999999994" gradientTransform="matrix(574.905,0,0,100,0,487.1)" gradientUnits="userSpaceOnUse"><stop offset="0%" stop-opacity="1" style="stop-color:rgb(237,238,245)"/><stop offset="100%" stop-opacity="1" style="stop-color:rgb(252,253,254)"/></linearGradient><path d=" M 8.673 585.5 C 7.104 585.5 5.719 585.4 4.427 585.2 C 3.227 585 2.212 584.7 1.474 584.3 C 0.735 583.9 0.274 583.4 0.089 582.9 C -0.095 582.4 -0.003 581.8 0.458 581.2 L 71.526 487.1 L 501.071 487.8 L 574.446 582.8 C 574.908 583.4 575 584 574.815 584.5 C 574.631 585 574.169 585.5 573.431 585.9 C 572.693 586.3 571.677 586.6 570.478 586.8 C 569.278 587 567.893 587.1 566.232 587.1 L 8.673 585.5 Z " fill="url(#_lgradient_0)"/><linearGradient id="_lgradient_1" x1="0.5" y1="1.0012262738961821" x2="0.5000000000000001" y2="0.0012262738961830166" gradientTransform="matrix(455.295,0,0,117.592,58.328,387.708)" gradientUnits="userSpaceOnUse"><stop offset="42.86%" stop-opacity="1" style="stop-color:rgb(237,238,245)"/><stop offset="67.96%" stop-opacity="1" style="stop-color:rgb(216,224,234)"/><stop offset="100%" stop-opacity="0" style="stop-color:rgb(237,238,245)"/></linearGradient><path d=" M 513.623 503.9 C 513.623 503.9 495.441 480.9 493.41 478.1 C 486.396 468 480.304 457.2 475.32 445.8 C 470.521 434.9 466.645 423.5 463.876 411.9 C 462.491 406.1 459.353 388.6 459.353 388.6 L 107.06 387.8 C 107.06 387.8 108.168 385.5 106.322 403.9 C 104.476 422.3 100.138 440.7 91.37 456.6 C 86.663 465.1 81.494 473.3 75.864 481.1 C 70.234 488.8 58.328 504.3 58.328 504.3 C 58.328 504.3 73.741 505.3 81.125 505.3 C 86.94 505.3 92.754 505.3 98.569 505.3 C 113.798 505.3 129.026 505.3 144.348 505.3 C 184.035 505.2 223.722 505.1 263.409 505 C 305.219 504.9 347.029 504.7 388.839 504.6 C 420.681 504.5 452.523 504.4 484.273 504.3 C 493.503 504.4 513.623 503.9 513.623 503.9 Z " fill="url(#_lgradient_1)"/></g><g><g><g><path d=" M 216.995 527.8 C 219.21 527.8 221.333 528 223.179 528.5 C 225.025 528.9 226.686 529.6 228.071 530.4 C 229.455 531.2 230.47 532.2 231.116 533.2 C 231.762 534.3 232.039 535.5 231.855 536.8 L 229.27 552.4 C 228.994 553.9 228.255 555.3 227.055 556.7 C 225.855 558.1 224.286 559.3 222.348 560.3 C 220.41 561.4 218.195 562.2 215.703 562.8 C 213.303 563.4 210.627 563.7 207.95 563.7 L 63.692 563.7 C 62.492 563.7 61.477 563.6 60.461 563.5 C 59.446 563.4 58.523 563.2 57.692 563 C 56.862 562.8 56.123 562.5 55.477 562.1 C 54.831 561.8 54.277 561.4 53.816 561 C 53.724 561 53.631 561.1 53.447 561.1 C 53.354 561.1 53.262 561.2 53.17 561.2 C 53.078 561.2 52.985 561.2 52.985 561.3 C 52.893 561.3 52.893 561.3 52.893 561.3 C 52.247 561.5 51.693 561.6 51.047 561.8 C 50.401 562 49.847 562.1 49.201 562.3 C 48.555 562.4 48.001 562.6 47.355 562.7 C 46.709 562.8 46.155 562.9 45.509 563 C 45.14 563.1 44.679 563.1 44.309 563.2 C 43.94 563.3 43.479 563.3 43.11 563.3 C 42.74 563.3 42.371 563.4 42.002 563.4 C 41.633 563.4 41.264 563.4 40.895 563.4 C 40.618 563.4 40.341 563.4 40.064 563.4 C 39.787 563.4 39.602 563.4 39.418 563.4 C 39.233 563.4 39.049 563.4 38.864 563.3 C 38.679 563.3 38.587 563.2 38.403 563.2 C 38.31 563.2 38.31 563.2 38.403 563.1 C 38.403 563.1 38.495 563 38.587 563 C 38.679 563 38.772 563 38.864 562.9 C 38.956 562.9 39.049 562.9 39.049 562.9 C 39.326 562.8 39.695 562.7 39.972 562.7 C 40.248 562.6 40.618 562.5 40.895 562.4 C 41.171 562.3 41.448 562.2 41.818 562.1 C 42.094 562 42.371 561.9 42.74 561.8 C 43.294 561.6 43.756 561.4 44.309 561.2 C 44.771 561 45.325 560.8 45.786 560.5 C 46.248 560.3 46.709 560 47.171 559.8 C 47.632 559.6 48.001 559.3 48.371 559 C 48.555 558.9 48.74 558.8 48.924 558.6 C 49.109 558.5 49.293 558.4 49.386 558.2 C 49.57 558.1 49.663 558 49.847 557.8 C 50.032 557.7 50.124 557.6 50.216 557.4 C 50.309 557.3 50.493 557.2 50.586 557 C 50.678 556.9 50.77 556.8 50.955 556.6 C 51.047 556.5 51.139 556.4 51.324 556.2 C 51.416 556.1 51.509 556 51.693 555.8 C 51.878 555.6 52.062 555.4 52.247 555.2 C 52.432 555 52.616 554.8 52.801 554.6 C 52.985 554.4 53.17 554.2 53.354 554 C 53.539 553.8 53.724 553.6 53.908 553.4 C 54.001 553.3 54.093 553.3 54.093 553.2 C 54.185 553.1 54.277 553.1 54.277 553 C 54.37 552.9 54.462 552.9 54.462 552.8 C 54.554 552.7 54.647 552.7 54.647 552.6 L 54.739 552.5 L 54.831 552.4 L 54.924 552.3 L 55.016 552.2 L 69.875 536.6 C 71.075 535.3 72.737 534.1 74.583 533 C 76.428 531.9 78.551 531 80.859 530.2 C 83.074 529.4 85.473 528.8 87.781 528.3 C 90.181 527.9 92.488 527.6 94.795 527.6 L 216.995 527.8 Z " fill="rgb(216,224,234)"/></g></g></g><g><g><g><path d=" M 277.925 477.1 C 279.902 477.1 281.722 477.3 283.383 477.8 C 285.044 478.2 286.468 478.9 287.655 479.7 C 288.841 480.5 289.791 481.5 290.344 482.5 C 290.898 483.6 291.215 484.8 290.977 486.1 L 288.683 501.7 C 288.446 503.2 287.813 504.6 286.785 506 C 285.756 507.4 284.332 508.6 282.592 509.6 C 280.852 510.7 278.874 511.5 276.738 512.1 C 274.602 512.7 272.308 513 269.935 513 L 143.13 513.1 C 142.101 513.1 141.152 513 140.282 512.9 C 139.412 512.8 138.621 512.6 137.83 512.4 C 137.118 512.2 136.485 511.9 135.931 511.5 C 135.377 511.2 134.903 510.8 134.507 510.4 C 134.428 510.4 134.27 510.5 134.191 510.5 C 134.112 510.5 134.033 510.6 133.953 510.6 C 133.874 510.6 133.795 510.6 133.795 510.7 C 133.716 510.7 133.716 510.7 133.716 510.7 C 133.162 510.9 132.609 511 132.134 511.2 C 131.58 511.4 131.027 511.5 130.473 511.7 C 129.919 511.8 129.365 512 128.812 512.1 C 128.258 512.2 127.704 512.3 127.23 512.4 C 126.913 512.5 126.518 512.5 126.201 512.6 C 125.885 512.7 125.489 512.7 125.173 512.7 C 124.856 512.7 124.461 512.8 124.144 512.8 C 123.828 512.8 123.512 512.8 123.195 512.8 C 122.958 512.8 122.721 512.8 122.483 512.8 C 122.246 512.8 122.088 512.8 121.929 512.8 C 121.771 512.8 121.613 512.8 121.455 512.7 C 121.297 512.7 121.138 512.6 121.059 512.6 C 120.98 512.6 120.98 512.6 121.059 512.5 C 121.059 512.5 121.138 512.5 121.218 512.4 C 121.297 512.4 121.376 512.4 121.455 512.3 C 121.534 512.3 121.613 512.3 121.613 512.3 C 121.85 512.2 122.167 512.1 122.404 512.1 C 122.641 512 122.958 511.9 123.195 511.8 C 123.432 511.7 123.749 511.6 123.986 511.5 C 124.224 511.4 124.54 511.3 124.777 511.2 C 125.252 511 125.647 510.8 126.122 510.6 C 126.597 510.4 126.992 510.2 127.388 509.9 C 127.783 509.7 128.179 509.4 128.574 509.2 C 128.97 509 129.286 508.7 129.682 508.4 C 129.84 508.3 129.998 508.2 130.156 508 C 130.315 507.9 130.473 507.8 130.552 507.6 C 130.71 507.5 130.789 507.4 130.947 507.2 C 131.106 507.1 131.185 507 131.264 506.8 C 131.343 506.7 131.501 506.6 131.58 506.4 C 131.659 506.3 131.818 506.2 131.897 506 C 131.976 505.9 132.055 505.8 132.213 505.6 C 132.292 505.5 132.371 505.4 132.53 505.2 C 132.688 505 132.846 504.8 133.083 504.6 C 133.242 504.4 133.4 504.2 133.637 504 C 133.795 503.8 133.953 503.6 134.191 503.4 C 134.349 503.2 134.507 503 134.745 502.8 C 134.824 502.7 134.903 502.7 134.903 502.6 C 134.982 502.5 135.061 502.5 135.061 502.4 C 135.14 502.3 135.219 502.3 135.219 502.2 C 135.298 502.1 135.377 502.1 135.377 502 L 135.456 501.9 L 135.536 501.8 L 135.615 501.7 L 135.694 501.6 L 148.746 486 C 149.854 484.7 151.277 483.5 152.86 482.4 C 154.521 481.3 156.34 480.4 158.318 479.6 C 160.295 478.8 162.352 478.2 164.409 477.7 C 166.466 477.3 168.602 477 170.579 477 L 277.925 477.1 Z " fill="rgb(216,224,234)"/></g></g></g><g><g><g><path d=" M 311.264 504.7 L 443.34 504.7 C 445.278 504.7 447.309 504.9 449.247 505.2 C 451.277 505.5 453.216 506 455.061 506.6 C 456.907 507.2 458.661 507.9 460.138 508.7 C 461.614 509.5 462.907 510.4 463.83 511.4 L 476.843 526.8 C 476.843 526.8 476.936 526.8 476.936 526.9 C 476.936 526.9 477.028 526.9 477.028 527 C 477.028 527.1 477.12 527.1 477.12 527.1 L 477.212 527.2 C 477.305 527.3 477.305 527.3 477.397 527.4 C 477.489 527.5 477.489 527.5 477.582 527.6 C 477.674 527.7 477.674 527.7 477.766 527.8 C 477.859 527.9 477.859 527.9 477.951 528 C 478.135 528.1 478.228 528.3 478.412 528.4 C 478.597 528.5 478.689 528.7 478.874 528.8 C 479.058 528.9 479.151 529.1 479.335 529.2 C 479.52 529.3 479.612 529.5 479.797 529.6 C 479.889 529.7 479.981 529.8 480.074 529.9 C 480.166 530 480.258 530.1 480.351 530.2 C 480.443 530.3 480.535 530.4 480.627 530.5 C 480.72 530.6 480.812 530.7 480.904 530.8 C 480.997 530.9 481.089 531 481.181 531.1 C 481.273 531.2 481.366 531.3 481.55 531.4 C 481.643 531.5 481.827 531.6 481.919 531.7 C 482.012 531.8 482.196 531.9 482.289 531.9 C 482.566 532.1 482.935 532.3 483.212 532.4 C 483.581 532.6 483.858 532.7 484.227 532.9 C 484.596 533.1 484.965 533.2 485.334 533.4 C 485.704 533.6 486.073 533.7 486.534 533.8 C 486.719 533.9 486.996 533.9 487.18 534 C 487.457 534.1 487.642 534.1 487.919 534.2 C 488.196 534.3 488.38 534.3 488.657 534.4 C 488.934 534.5 489.119 534.5 489.395 534.6 C 489.395 534.6 489.488 534.6 489.58 534.6 C 489.672 534.6 489.765 534.6 489.765 534.6 C 489.857 534.6 489.857 534.6 489.949 534.7 L 489.949 534.7 C 489.857 534.7 489.672 534.7 489.58 534.8 C 489.488 534.8 489.303 534.8 489.211 534.8 C 489.026 534.8 488.934 534.8 488.749 534.8 C 488.565 534.8 488.473 534.8 488.288 534.8 L 488.196 534.8 L 488.103 534.8 L 488.011 534.8 L 487.919 534.8 C 487.642 534.8 487.365 534.8 486.996 534.8 C 486.627 534.8 486.35 534.8 486.073 534.7 C 485.796 534.7 485.427 534.6 485.15 534.6 C 484.873 534.6 484.504 534.5 484.227 534.5 C 483.765 534.4 483.212 534.3 482.75 534.3 C 482.289 534.2 481.735 534.1 481.273 534 C 480.812 533.9 480.258 533.8 479.797 533.7 C 479.335 533.6 478.781 533.5 478.32 533.4 C 478.32 533.4 478.32 533.4 478.228 533.4 C 478.228 533.4 478.135 533.4 478.043 533.4 C 477.951 533.4 477.951 533.4 477.859 533.3 C 477.766 533.3 477.674 533.3 477.582 533.2 C 477.212 533.5 476.659 533.8 476.105 534 C 475.551 534.2 474.905 534.4 474.259 534.6 C 473.521 534.8 472.782 534.9 471.952 535 C 471.121 535.1 470.198 535.1 469.275 535.1 L 323.632 535.1 C 321.417 535.1 319.294 534.9 317.264 534.4 C 315.233 534 313.295 533.4 311.634 532.6 C 309.972 531.9 308.496 531 307.388 530 C 306.28 529.1 305.542 528 305.173 527 L 299.543 511.6 C 299.266 510.6 299.358 509.7 299.82 508.9 C 300.281 508.1 301.112 507.4 302.127 506.8 C 303.235 506.2 304.527 505.7 306.096 505.4 C 307.573 504.9 309.326 504.7 311.264 504.7 Z " fill="rgb(216,224,234)"/></g></g></g></g><clipPath id="_clipPath_uMKfhqyf2qxy1QOWNXIeeYh756DTqBnG"><rect x="25" y="0" width="550" height="550" transform="matrix(1,0,0,1,0,0)" fill="rgb(255,255,255)"/></clipPath><g clip-path="url(#_clipPath_uMKfhqyf2qxy1QOWNXIeeYh756DTqBnG)"><g><g><g><g><g><linearGradient id="_lgradient_2" x1="0" y1="0.5000000000000001" x2="0.9999999999999999" y2="0.5000000000000001" gradientTransform="matrix(424.6,0,0,384,118.4,165.3)" gradientUnits="userSpaceOnUse"><stop offset="0%" stop-opacity="1" style="stop-color:rgb(214,72,147)"/><stop offset="9.281731%" stop-opacity="1" style="stop-color:rgb(219,83,158)"/><stop offset="49.309999999999995%" stop-opacity="1" style="stop-color:rgb(237,123,198)"/><stop offset="80.93%" stop-opacity="1" style="stop-color:rgb(249,149,224)"/><stop offset="100%" stop-opacity="1" style="stop-color:rgb(253,158,233)"/></linearGradient><path d=" M 140.9 549.3 C 128.5 549.3 118.4 539.2 118.4 526.8 L 118.4 401.1 C 118.4 355.1 155.9 317.6 201.9 317.6 L 300.4 317.6 C 321.6 317.6 338.9 300.3 338.9 279.1 L 338.9 242.8 C 338.9 196.8 376.4 165.3 422.4 165.3 L 520.5 165.3 C 532.9 165.3 543 175.4 543 187.8 C 543 200.2 532.9 210.3 520.5 210.3 L 422.4 210.3 C 401.2 210.3 383.9 221.6 383.9 242.8 L 383.9 279.1 C 383.9 325.1 346.4 362.6 300.4 362.6 L 201.9 362.6 C 180.7 362.6 163.4 379.9 163.4 401.1 L 163.4 526.8 C 163.4 539.3 153.3 549.3 140.9 549.3 Z " fill="url(#_lgradient_2)"/><g><linearGradient id="_lgradient_3" x1="8.326672684688674e-17" y1="0.5000000000000001" x2="0.9999999999999999" y2="0.5000000000000001" gradientTransform="matrix(424.6,0,0,384,118.4,165.3)" gradientUnits="userSpaceOnUse"><stop offset="0%" stop-opacity="1" style="stop-color:rgb(165,34,155)"/><stop offset="52.769999999999996%" stop-opacity="1" style="stop-color:rgb(201,82,204)"/><stop offset="83.35000000000001%" stop-opacity="1" style="stop-color:rgb(225,102,232)"/><stop offset="100%" stop-opacity="1" style="stop-color:rgb(207,94,214)"/></linearGradient><path d=" M 520.5 168.3 C 531.3 168.3 540 177 540 187.8 C 540 198.6 531.3 207.3 520.5 207.3 L 422.4 207.3 C 399.5 207.3 380.9 225.9 380.9 248.8 L 380.9 279.1 C 380.9 323.5 344.8 359.6 300.4 359.6 L 201.9 359.6 C 179 359.6 160.4 378.2 160.4 401.1 L 160.4 526.8 C 160.4 537.6 151.7 546.3 140.9 546.3 C 130.1 546.3 121.4 537.6 121.4 526.8 L 121.4 401.1 C 121.4 356.7 157.5 320.6 201.9 320.6 L 300.4 320.6 C 323.3 320.6 341.9 302 341.9 279.1 L 341.9 248.8 C 341.9 204.4 378 168.3 422.4 168.3 L 520.5 168.3 Z  M 520.5 165.3 L 422.4 165.3 C 376.4 165.3 338.9 202.8 338.9 248.8 L 338.9 279.1 C 338.9 300.3 321.6 317.6 300.4 317.6 L 201.9 317.6 C 155.9 317.6 118.4 355.1 118.4 401.1 L 118.4 526.8 C 118.4 539.2 128.5 549.3 140.9 549.3 C 153.3 549.3 163.4 539.2 163.4 526.8 L 163.4 401.1 C 163.4 379.9 180.7 362.6 201.9 362.6 L 300.4 362.6 C 346.4 362.6 383.9 325.1 383.9 279.1 L 383.9 248.8 C 383.9 227.6 401.2 210.3 422.4 210.3 L 520.5 210.3 C 532.9 210.3 543 200.2 543 187.8 C 543 175.4 532.9 165.3 520.5 165.3 L 520.5 165.3 Z " fill="url(#_lgradient_3)"/></g><path d=" M 383.9 168.8 C 357.2 182.7 338.9 210.7 338.9 242.9 C 338.9 242.9 338.9 353.3 338.8 353.3 C 365.5 339.4 383.9 311.4 383.9 279.2 L 383.9 242.9 C 383.9 234.7 383.8 168.9 383.9 168.8 Z " fill="rgb(89,48,153)"/><g><path d=" M 488.6 187.9 C 489 187.5 489.5 187 489.9 186.6 C 491 185.5 492 184.5 493.1 183.4 C 494.5 182 495.8 180.7 497.2 179.3 C 498.6 177.9 499.9 176.6 501.3 175.2 C 502.3 174.2 503.4 173.1 504.4 172.1 C 506.5 170 509.1 168.2 511.9 167.1 C 513 166.7 514.1 166.3 515.2 166.1 C 516.7 165.8 518.2 165.5 519.7 165.3 L 466.1 165.3 L 488.6 187.9 Z " fill="rgb(223,100,229)"/><path d=" M 518.3 165.5 C 519 165.4 519.7 165.4 520.4 165.4 C 526.7 165.4 532.5 168 536.6 172.3 L 536.7 172.3 C 536.6 172.2 536.5 172.1 536.4 172 L 492.4 128 C 483.6 119.2 469.4 119.2 460.6 128 C 451.8 136.8 451.8 151 460.6 159.8 L 466.1 165.3 C 466.9 165.3 519.7 165.3 519.6 165.3 C 519.2 165.4 518.8 165.5 518.3 165.5 Z " fill="rgb(188,92,198)"/><path d=" M 518.3 210.3 C 519 210.4 519.7 210.4 520.4 210.4 C 526.7 210.4 532.5 207.8 536.6 203.5 L 536.7 203.5 C 536.6 203.6 536.5 203.7 536.4 203.8 L 492.4 247.8 C 483.6 256.6 469.4 256.6 460.6 247.8 C 451.8 239 451.8 224.8 460.6 216 L 466.1 210.5 C 466.9 210.5 519.7 210.5 519.6 210.5 C 519.2 210.4 518.7 210.4 518.3 210.3 Z " fill="rgb(188,92,198)"/><path d=" M 488.6 187.9 C 489 188.3 489.5 188.8 489.9 189.2 C 491 190.3 492 191.3 493.1 192.4 C 494.5 193.8 495.8 195.1 497.2 196.5 C 498.6 197.9 499.9 199.2 501.3 200.6 C 502.3 201.6 503.4 202.7 504.4 203.7 C 506.5 205.8 509.1 207.6 511.9 208.7 C 513 209.1 514.1 209.5 515.2 209.7 C 516.7 210 518.2 210.3 519.7 210.5 L 466.1 210.5 L 488.6 187.9 Z " fill="rgb(223,100,229)"/><path d=" M 520.4 165.4 C 514.5 165.4 509.1 167.7 505.1 171.4 C 504.4 172 502.9 173.5 502.9 173.5 L 488.7 187.9 L 504.1 203.3 C 508.2 207.7 514 210.4 520.5 210.4 C 532.9 210.4 543 200.3 543 187.9 C 542.9 175.5 532.8 165.4 520.4 165.4 Z " fill="rgb(166,80,181)"/></g><circle vector-effect="non-scaling-stroke" cx="140.90000000000015" cy="526.1000000000003" r="15.5" fill="rgb(137,40,135)"/></g><g style="opacity:0.12;"><g style="opacity:0.12;"><g style="opacity:0.12;"><g opacity="0.12"><path d=" M 341.1 348 L 339 353.3 C 339 353.3 333.4 356.1 328.8 357.5 C 332.5 351.4 335.2 344.5 334.4 333.3 C 333.6 322.1 325.1 313.5 321.5 311 C 326.2 307.8 329.4 305.3 334.1 297.6 C 338.8 289.9 339.5 279.5 339.5 279.5 L 341.1 348 Z " fill="rgb(130,26,130)"/></g></g></g></g><g style="opacity:0.12;"><g style="opacity:0.12;"><g style="opacity:0.12;"><g opacity="0.12"><path d=" M 203.9 362.5 C 203.9 362.5 201.2 362.5 199 362.7 C 196.7 362.9 196.9 362.7 192.9 363.6 C 196.6 357.5 198.9 351.8 198.8 340.6 C 198.7 329.4 195.7 323 192.8 318.2 C 194.4 318 194.8 317.8 198.4 317.7 C 202 317.6 204 317.6 204 317.6 L 204 362.5 L 203.9 362.5 L 203.9 362.5 Z " fill="rgb(65,29,112)"/></g></g></g></g><g><g><linearGradient id="_lgradient_4" x1="0.4999999999999999" y1="1" x2="0.49999999999999994" y2="2.220446049250313e-16" gradientTransform="matrix(171.6,0,0,395,75.7,102.7)" gradientUnits="userSpaceOnUse"><stop offset="0%" stop-opacity="1" style="stop-color:rgb(0,131,182)"/><stop offset="4.632003%" stop-opacity="1" style="stop-color:rgb(10,137,183)"/><stop offset="36.809999999999995%" stop-opacity="1" style="stop-color:rgb(76,173,181)"/><stop offset="61.91%" stop-opacity="1" style="stop-color:rgb(134,208,193)"/><stop offset="79.03%" stop-opacity="1" style="stop-color:rgb(144,220,205)"/><stop offset="99.91%" stop-opacity="1" style="stop-color:rgb(162,235,186)"/></linearGradient><path d=" M 224.8 497.7 C 212.4 497.7 202.3 487.6 202.3 475.2 L 202.3 186.2 C 202.3 165 185 147.7 163.8 147.7 L 98.2 147.7 C 85.8 147.7 75.7 137.6 75.7 125.2 C 75.7 112.8 85.8 102.7 98.2 102.7 L 163.8 102.7 C 209.8 102.7 247.3 140.2 247.3 186.2 L 247.3 475.2 C 247.3 487.6 237.2 497.7 224.8 497.7 Z " fill="url(#_lgradient_4)"/></g><circle vector-effect="non-scaling-stroke" cx="224.90000000000003" cy="474.1" r="15.5" fill="rgb(2,101,140)"/><g style="opacity:0.68;"><g style="opacity:0.68;"><g style="opacity:0.68;"><g opacity="0.68"><rect x="205" y="317.3" width="39.4" height="45.2" transform="matrix(1,0,0,1,0,0)" fill="rgb(45,75,127)"/></g></g></g></g><g><linearGradient id="_lgradient_5" x1="0.4999999999999999" y1="1" x2="0.49999999999999994" y2="0.21615716020514109" gradientTransform="matrix(171.6,0,0,395,75.7,102.7)" gradientUnits="userSpaceOnUse"><stop offset="0%" stop-opacity="1" style="stop-color:rgb(63,115,185)"/><stop offset="35.47%" stop-opacity="1" style="stop-color:rgb(46,149,163)"/><stop offset="66.32000000000001%" stop-opacity="1" style="stop-color:rgb(24,189,160)"/><stop offset="83.96000000000001%" stop-opacity="1" style="stop-color:rgb(0,237,196)"/></linearGradient><path d=" M 163.8 105.7 C 208.2 105.7 244.3 141.8 244.3 186.2 L 244.3 475.2 C 244.3 486 235.6 494.7 224.8 494.7 C 214 494.7 205.3 486 205.3 475.2 L 205.3 186.2 C 205.3 163.3 186.7 144.7 163.8 144.7 L 98.2 144.7 C 87.4 144.7 78.7 136 78.7 125.2 C 78.7 114.4 87.4 105.7 98.2 105.7 L 163.8 105.7 Z  M 163.8 102.7 L 98.2 102.7 C 85.8 102.7 75.7 112.8 75.7 125.2 C 75.7 137.6 85.8 147.7 98.2 147.7 L 163.8 147.7 C 185 147.7 202.3 165 202.3 186.2 L 202.3 475.2 C 202.3 487.6 212.4 497.7 224.8 497.7 C 237.2 497.7 247.3 487.6 247.3 475.2 L 247.3 186.2 C 247.3 140.2 209.8 102.7 163.8 102.7 L 163.8 102.7 Z " fill="url(#_lgradient_5)"/></g></g><g><linearGradient id="_lgradient_6" x1="0.5" y1="1.0000000000000004" x2="0.5000000000000001" y2="0" gradientTransform="matrix(45,0,0,518,338.9,1.1)" gradientUnits="userSpaceOnUse"><stop offset="0%" stop-opacity="1" style="stop-color:rgb(129,177,222)"/><stop offset="61.88%" stop-opacity="1" style="stop-color:rgb(163,160,234)"/><stop offset="99.91%" stop-opacity="1" style="stop-color:rgb(201,142,247)"/></linearGradient><path d=" M 361.4 519.1 C 349 519.1 338.9 509 338.9 496.6 L 338.9 23.6 C 338.9 11.2 349 1.1 361.4 1.1 C 373.8 1.1 383.9 11.2 383.9 23.6 L 383.9 496.6 C 383.9 509 373.8 519.1 361.4 519.1 Z " fill="url(#_lgradient_6)"/><linearGradient id="_lgradient_7" x1="0.5000000000000018" y1="1" x2="0.5000000000000019" y2="0" gradientTransform="matrix(45.1,0,0,178.9,338.8,174.6)" gradientUnits="userSpaceOnUse"><stop offset="0%" stop-opacity="1" style="stop-color:rgb(116,72,181)"/><stop offset="100%" stop-opacity="1" style="stop-color:rgb(103,86,179)"/></linearGradient><path d=" M 383.9 174.6 C 357.2 187 338.9 211.8 338.9 240.3 L 338.9 287.8 C 338.9 288.4 338.9 289 338.8 289.6 C 338.8 289.9 338.8 353.5 338.8 353.5 C 365.5 341.1 383.9 316.3 383.9 287.7 L 383.9 234.2 C 383.9 227 383.9 174.6 383.9 174.6 Z " fill="url(#_lgradient_7)"/><g><linearGradient id="_lgradient_8" x1="0.5" y1="1.0000000000000007" x2="0.5000000000000001" y2="2.220446049250313e-16" gradientTransform="matrix(45,0,0,518,338.9,1.1)" gradientUnits="userSpaceOnUse"><stop offset="0%" stop-opacity="1" style="stop-color:rgb(72,82,187)"/><stop offset="39.26%" stop-opacity="1" style="stop-color:rgb(118,93,227)"/><stop offset="73.39%" stop-opacity="1" style="stop-color:rgb(153,84,204)"/><stop offset="100%" stop-opacity="1" style="stop-color:rgb(173,64,201)"/></linearGradient><path d=" M 361.4 4.1 C 372.2 4.1 380.9 12.8 380.9 23.6 L 380.9 496.6 C 380.9 507.4 372.2 516.1 361.4 516.1 C 350.6 516.1 341.9 507.4 341.9 496.6 L 341.9 23.6 C 341.9 12.9 350.6 4.1 361.4 4.1 Z  M 361.4 1.1 C 349 1.1 338.9 11.2 338.9 23.6 L 338.9 496.6 C 338.9 509 349 519.1 361.4 519.1 C 373.8 519.1 383.9 509 383.9 496.6 L 383.9 23.6 C 383.9 11.2 373.8 1.1 361.4 1.1 L 361.4 1.1 Z " fill="url(#_lgradient_8)"/></g><g><circle vector-effect="non-scaling-stroke" cx="361.4" cy="254.09999999999997" r="15.399999999999977" fill="rgb(255,255,255)"/><path d=" M 361.4 240.7 C 368.8 240.7 374.8 246.7 374.8 254.1 C 374.8 261.5 368.8 267.5 361.4 267.5 C 354 267.5 348 261.5 348 254.1 C 348 246.7 354.1 240.7 361.4 240.7 Z  M 361.4 236.7 C 351.8 236.7 344 244.5 344 254.1 C 344 263.7 351.8 271.5 361.4 271.5 C 371 271.5 378.8 263.7 378.8 254.1 C 378.8 244.5 371 236.7 361.4 236.7 L 361.4 236.7 Z " fill="rgb(129,129,226)"/></g><g><circle vector-effect="non-scaling-stroke" cx="361.4" cy="495.89999999999975" r="15.399999999999977" fill="rgb(73,99,201)"/></g></g><g><path d=" M 361.4 54.3 C 361 53.9 360.5 53.4 360.1 53 C 359 51.9 358 50.9 356.9 49.8 C 355.5 48.4 354.2 47.1 352.8 45.7 C 351.4 44.3 350.1 43 348.7 41.6 C 347.7 40.6 346.6 39.5 345.6 38.5 C 343.5 36.4 341.7 33.8 340.6 31 C 340.2 29.9 339.8 28.8 339.6 27.7 C 339.3 26.2 339 24.7 338.8 23.2 L 338.8 76.8 L 361.4 54.3 Z " fill="rgb(162,75,203)"/><path d=" M 339 24.6 C 338.9 23.9 338.9 23.2 338.9 22.5 C 338.9 16.2 341.5 10.4 345.8 6.3 L 345.8 6.2 C 345.7 6.3 345.6 6.4 345.5 6.5 L 301.5 50.5 C 292.7 59.3 292.7 73.5 301.5 82.3 C 310.3 91.1 324.5 91.1 333.3 82.3 L 338.8 76.8 C 338.8 76 338.8 23.2 338.8 23.3 C 338.9 23.7 338.9 24.2 339 24.6 Z " fill="rgb(145,115,216)"/><path d=" M 383.8 24.6 C 383.9 23.9 383.9 23.2 383.9 22.5 C 383.9 16.2 381.3 10.4 377 6.3 L 377 6.2 C 377.1 6.3 377.2 6.4 377.3 6.5 L 421.3 50.5 C 430.1 59.3 430.1 73.5 421.3 82.3 C 412.5 91.1 398.3 91.1 389.5 82.3 L 384 76.8 C 384 76 384 23.2 384 23.3 C 383.9 23.7 383.8 24.2 383.8 24.6 Z " fill="rgb(145,115,216)"/><path d=" M 361.4 54.3 C 361.8 53.9 362.3 53.4 362.7 53 C 363.8 51.9 364.8 50.9 365.9 49.8 C 367.3 48.4 368.6 47.1 370 45.7 C 371.4 44.3 372.7 43 374.1 41.6 C 375.1 40.6 376.2 39.5 377.2 38.5 C 379.3 36.4 381.1 33.8 382.2 31 C 382.6 29.9 383 28.8 383.2 27.7 C 383.5 26.2 383.8 24.7 384 23.2 L 384 76.8 L 361.4 54.3 Z " fill="rgb(162,75,203)"/><path d=" M 338.9 22.5 C 338.9 28.4 341.2 33.8 344.9 37.8 C 345.5 38.5 347 40 347 40 L 361.4 54.3 L 376.8 38.9 C 381.2 34.8 383.9 29 383.9 22.5 C 383.9 10.1 373.8 0 361.4 0 C 349 0 338.9 10.1 338.9 22.5 Z " fill="rgb(117,81,188)"/></g><g><path d=" M 129.7 125.3 C 129.3 124.9 128.8 124.4 128.4 124 C 127.3 122.9 126.3 121.9 125.2 120.8 C 123.8 119.4 122.5 118.1 121.1 116.7 C 119.7 115.3 118.4 114 117 112.6 C 116 111.6 114.9 110.5 113.9 109.5 C 111.8 107.4 109.2 105.6 106.4 104.5 C 105.3 104.1 104.2 103.7 103.1 103.5 C 101.6 103.2 100.1 102.9 98.6 102.7 L 152.2 102.7 L 129.7 125.3 Z " fill="rgb(36,234,195)"/><path d=" M 100 102.9 C 99.3 102.8 98.6 102.8 97.9 102.8 C 91.6 102.8 85.8 105.4 81.7 109.7 L 81.6 109.7 C 81.7 109.6 81.8 109.5 81.9 109.4 L 125.9 65.4 C 134.7 56.6 148.9 56.6 157.7 65.4 C 166.5 74.2 166.5 88.4 157.7 97.2 L 152.2 102.7 C 151.4 102.7 98.6 102.7 98.7 102.7 C 99.1 102.7 99.5 102.8 100 102.9 Z " fill="rgb(44,219,186)"/><path d=" M 100 147.6 C 99.3 147.7 98.6 147.7 97.9 147.7 C 91.6 147.7 85.8 145.1 81.7 140.8 L 81.6 140.8 C 81.7 140.9 81.8 141 81.9 141.1 L 125.9 185.1 C 134.7 193.9 148.9 193.9 157.7 185.1 C 166.5 176.3 166.5 162.1 157.7 153.3 L 152.2 147.8 C 151.4 147.8 98.6 147.8 98.7 147.8 C 99.1 147.8 99.6 147.7 100 147.6 Z " fill="rgb(44,219,186)"/><path d=" M 129.7 125.3 C 129.3 125.7 128.8 126.2 128.4 126.6 C 127.3 127.7 126.3 128.7 125.2 129.8 C 123.8 131.2 122.5 132.5 121.1 133.9 C 119.7 135.3 118.4 136.6 117 138 C 116 139 114.9 140.1 113.9 141.1 C 111.8 143.2 109.2 145 106.4 146.1 C 105.3 146.5 104.2 146.9 103.1 147.1 C 101.6 147.4 100.1 147.7 98.6 147.9 L 152.2 147.9 L 129.7 125.3 Z " fill="rgb(36,234,195)"/><path d=" M 97.9 102.8 C 103.8 102.8 109.2 105.1 113.2 108.8 C 113.9 109.4 115.4 110.9 115.4 110.9 L 129.7 125.3 L 114.3 140.7 C 110.2 145.1 104.4 147.8 97.9 147.8 C 85.5 147.8 75.4 137.7 75.4 125.3 C 75.4 112.8 85.5 102.8 97.9 102.8 Z " fill="rgb(32,201,169)"/></g><g style="opacity:0.4;"><g style="opacity:0.4;"><g style="opacity:0.4;"><g style="opacity:0.4;"><g opacity="0.4"><circle vector-effect="non-scaling-stroke" cx="225.10000000000008" cy="340.1999999999998" r="17.399999999999977" fill="rgb(29,83,112)"/></g></g></g></g></g><g><path d=" M 224.9 355.5 C 216.4 355.5 209.5 348.6 209.5 340.1 C 209.5 331.6 216.4 324.7 224.9 324.7 C 233.4 324.7 240.3 331.6 240.3 340.1 C 240.3 348.6 233.4 355.5 224.9 355.5 Z " fill="rgb(255,255,255)"/><path d=" M 224.9 326.8 C 232.3 326.8 238.3 332.8 238.3 340.2 C 238.3 347.6 232.3 353.6 224.9 353.6 C 217.5 353.6 211.5 347.6 211.5 340.2 C 211.5 332.8 217.6 326.8 224.9 326.8 Z  M 224.9 322.8 C 215.3 322.8 207.5 330.6 207.5 340.2 C 207.5 349.8 215.3 357.6 224.9 357.6 C 234.5 357.6 242.3 349.8 242.3 340.2 C 242.3 330.6 234.5 322.8 224.9 322.8 L 224.9 322.8 Z " fill="rgb(61,146,165)"/></g><circle vector-effect="non-scaling-stroke" cx="225.20000000000007" cy="234.40000000000006" r="15.5" fill="rgb(82,170,185)"/></g></g></g></g></g></g></svg>